<svg height="278.838" viewBox="0 0 409 318" width="358.631" xmlns="http://www.w3.org/2000/svg" xmlns:xlink="http://www.w3.org/1999/xlink"><linearGradient id="b" x1="50%" x2="50%" y1="0%" y2="99.121%"><stop offset="0" stop-color="#e659ff"/><stop offset="1" stop-color="#0037ff"/></linearGradient><linearGradient id="a"><stop offset="0" stop-color="#f1a5ff"/><stop offset="1" stop-color="#ff686c"/></linearGradient><linearGradient id="c" x1="37.123%" x2="39.611%" xlink:href="#a" y1="32.11%" y2="100%"/><linearGradient id="g" x1="39.856%" x2="43.004%" xlink:href="#a" y1="8.321%" y2="72.326%"/><linearGradient id="k" x1="26.384%" x2="73.148%" xlink:href="#a" y1="17.53%" y2="74.171%"/><mask id="d" fill="#fff"><path d="M186.369 296.833c4.222 9.274 3.21 18.05 3.21 18.05s-4.334 1.296-12.514 1.407c-3.032.706-15.145 2.914-34.797-1.227-22.89-4.823-33.47-29.096-33.47-29.096s.22-.22.66-.59c-1.3-.235-2.04-.314-2.18-.19-14.78 2.857-22.49 2.54-33.75 2.54s-55.81-16.81-70.16-34.83c0 0 22.28-5.41 22.28-9.982 0-4.57-25.46-13.018-25.46-13.018s-3.86-21.085 23.43-42.14c17.9-13.807 32.84-22.857 47.47-27.783-14.18-1.882-54.25-17.728-67.72-34.643 0 0 22.28-5.41 22.28-9.98S.208 102.34.208 102.34s-3.86-21.085 23.429-42.14c27.285-21.062 47.705-31.06 70.652-32.23s30.64-1.17 30.64-1.17S144.907 0 155.399 0c5.247 0 82.112 16.234 88.77 26.802 6.658 10.57 9.898 9.8 13.3 12.333 3.403 2.533 1.26.507 16.68 3.93 38.567 8.564 33.305 11.925 61.96 17.126 11.598 2.11 64.744-23.85 69.758-21.32 2.334 1.18 4.166 23.5-4.958 38.14-9.125 14.64 7.324 26.73-.063 45.06s8.46 31.91 5.02 38.11c-3.44 6.21-59.872-20.3-69.757-18.38-8.846 1.72-33.975 13.46-83.05 22.44 1.614.96 2.998 1.45 4.41 2.5 3.403 2.54 1.26.51 16.68 3.93 38.567 8.57 33.305 11.93 61.96 17.13 11.598 2.1 64.744-23.85 69.758-21.33 2.334 1.17 4.166 23.5-4.958 38.13-9.125 14.64 7.324 26.73-.063 45.06s8.46 31.91 5.02 38.11c-3.44 6.21-59.872-20.3-69.757-18.39-9.884 1.92-40.093 16.35-101.314 25.46-16.307 2.43-32.872 2.79-48.427 2.04v-.048z" fill-rule="evenodd"/></mask><mask id="e" fill="#fff"><path d="M186.369 296.833c4.222 9.274 3.21 18.05 3.21 18.05s-4.334 1.296-12.514 1.407c-3.032.706-15.145 2.914-34.797-1.227-22.89-4.823-33.47-29.096-33.47-29.096s.22-.22.66-.59c-1.3-.235-2.04-.314-2.18-.19-14.78 2.857-22.49 2.54-33.75 2.54s-55.81-16.81-70.16-34.83c0 0 22.28-5.41 22.28-9.982 0-4.57-25.46-13.018-25.46-13.018s-3.86-21.085 23.43-42.14c17.9-13.807 32.84-22.857 47.47-27.783-14.18-1.882-54.25-17.728-67.72-34.643 0 0 22.28-5.41 22.28-9.98S.208 102.34.208 102.34s-3.86-21.085 23.429-42.14c27.285-21.062 47.705-31.06 70.652-32.23s30.64-1.17 30.64-1.17S144.907 0 155.399 0c5.247 0 82.112 16.234 88.77 26.802 6.658 10.57 9.898 9.8 13.3 12.333 3.403 2.533 1.26.507 16.68 3.93 38.567 8.564 33.305 11.925 61.96 17.126 11.598 2.11 64.744-23.85 69.758-21.32 2.334 1.18 4.166 23.5-4.958 38.14-9.125 14.64 7.324 26.73-.063 45.06s8.46 31.91 5.02 38.11c-3.44 6.21-59.872-20.3-69.757-18.38-8.846 1.72-33.975 13.46-83.05 22.44 1.614.96 2.998 1.45 4.41 2.5 3.403 2.54 1.26.51 16.68 3.93 38.567 8.57 33.305 11.93 61.96 17.13 11.598 2.1 64.744-23.85 69.758-21.33 2.334 1.17 4.166 23.5-4.958 38.13-9.125 14.64 7.324 26.73-.063 45.06s8.46 31.91 5.02 38.11c-3.44 6.21-59.872-20.3-69.757-18.39-9.884 1.92-40.093 16.35-101.314 25.46-16.307 2.43-32.872 2.79-48.427 2.04v-.048z" fill-rule="evenodd"/></mask><mask id="f" fill="#fff"><path d="M186.369 296.833c4.222 9.274 3.21 18.05 3.21 18.05s-4.334 1.296-12.514 1.407c-3.032.706-15.145 2.914-34.797-1.227-22.89-4.823-33.47-29.096-33.47-29.096s.22-.22.66-.59c-1.3-.235-2.04-.314-2.18-.19-14.78 2.857-22.49 2.54-33.75 2.54s-55.81-16.81-70.16-34.83c0 0 22.28-5.41 22.28-9.982 0-4.57-25.46-13.018-25.46-13.018s-3.86-21.085 23.43-42.14c17.9-13.807 32.84-22.857 47.47-27.783-14.18-1.882-54.25-17.728-67.72-34.643 0 0 22.28-5.41 22.28-9.98S.208 102.34.208 102.34s-3.86-21.085 23.429-42.14c27.285-21.062 47.705-31.06 70.652-32.23s30.64-1.17 30.64-1.17S144.907 0 155.399 0c5.247 0 82.112 16.234 88.77 26.802 6.658 10.57 9.898 9.8 13.3 12.333 3.403 2.533 1.26.507 16.68 3.93 38.567 8.564 33.305 11.925 61.96 17.126 11.598 2.11 64.744-23.85 69.758-21.32 2.334 1.18 4.166 23.5-4.958 38.14-9.125 14.64 7.324 26.73-.063 45.06s8.46 31.91 5.02 38.11c-3.44 6.21-59.872-20.3-69.757-18.38-8.846 1.72-33.975 13.46-83.05 22.44 1.614.96 2.998 1.45 4.41 2.5 3.403 2.54 1.26.51 16.68 3.93 38.567 8.57 33.305 11.93 61.96 17.13 11.598 2.1 64.744-23.85 69.758-21.33 2.334 1.17 4.166 23.5-4.958 38.13-9.125 14.64 7.324 26.73-.063 45.06s8.46 31.91 5.02 38.11c-3.44 6.21-59.872-20.3-69.757-18.39-9.884 1.92-40.093 16.35-101.314 25.46-16.307 2.43-32.872 2.79-48.427 2.04v-.048z" fill-rule="evenodd"/></mask><mask id="h" fill="#fff"><path d="M186.369 296.833c4.222 9.274 3.21 18.05 3.21 18.05s-4.334 1.296-12.514 1.407c-3.032.706-15.145 2.914-34.797-1.227-22.89-4.823-33.47-29.096-33.47-29.096s.22-.22.66-.59c-1.3-.235-2.04-.314-2.18-.19-14.78 2.857-22.49 2.54-33.75 2.54s-55.81-16.81-70.16-34.83c0 0 22.28-5.41 22.28-9.982 0-4.57-25.46-13.018-25.46-13.018s-3.86-21.085 23.43-42.14c17.9-13.807 32.84-22.857 47.47-27.783-14.18-1.882-54.25-17.728-67.72-34.643 0 0 22.28-5.41 22.28-9.98S.208 102.34.208 102.34s-3.86-21.085 23.429-42.14c27.285-21.062 47.705-31.06 70.652-32.23s30.64-1.17 30.64-1.17S144.907 0 155.399 0c5.247 0 82.112 16.234 88.77 26.802 6.658 10.57 9.898 9.8 13.3 12.333 3.403 2.533 1.26.507 16.68 3.93 38.567 8.564 33.305 11.925 61.96 17.126 11.598 2.11 64.744-23.85 69.758-21.32 2.334 1.18 4.166 23.5-4.958 38.14-9.125 14.64 7.324 26.73-.063 45.06s8.46 31.91 5.02 38.11c-3.44 6.21-59.872-20.3-69.757-18.38-8.846 1.72-33.975 13.46-83.05 22.44 1.614.96 2.998 1.45 4.41 2.5 3.403 2.54 1.26.51 16.68 3.93 38.567 8.57 33.305 11.93 61.96 17.13 11.598 2.1 64.744-23.85 69.758-21.33 2.334 1.17 4.166 23.5-4.958 38.13-9.125 14.64 7.324 26.73-.063 45.06s8.46 31.91 5.02 38.11c-3.44 6.21-59.872-20.3-69.757-18.39-9.884 1.92-40.093 16.35-101.314 25.46-16.307 2.43-32.872 2.79-48.427 2.04v-.048z" fill-rule="evenodd"/></mask><mask id="i" fill="#fff"><path d="M186.369 296.833c4.222 9.274 3.21 18.05 3.21 18.05s-4.334 1.296-12.514 1.407c-3.032.706-15.145 2.914-34.797-1.227-22.89-4.823-33.47-29.096-33.47-29.096s.22-.22.66-.59c-1.3-.235-2.04-.314-2.18-.19-14.78 2.857-22.49 2.54-33.75 2.54s-55.81-16.81-70.16-34.83c0 0 22.28-5.41 22.28-9.982 0-4.57-25.46-13.018-25.46-13.018s-3.86-21.085 23.43-42.14c17.9-13.807 32.84-22.857 47.47-27.783-14.18-1.882-54.25-17.728-67.72-34.643 0 0 22.28-5.41 22.28-9.98S.208 102.34.208 102.34s-3.86-21.085 23.429-42.14c27.285-21.062 47.705-31.06 70.652-32.23s30.64-1.17 30.64-1.17S144.907 0 155.399 0c5.247 0 82.112 16.234 88.77 26.802 6.658 10.57 9.898 9.8 13.3 12.333 3.403 2.533 1.26.507 16.68 3.93 38.567 8.564 33.305 11.925 61.96 17.126 11.598 2.11 64.744-23.85 69.758-21.32 2.334 1.18 4.166 23.5-4.958 38.14-9.125 14.64 7.324 26.73-.063 45.06s8.46 31.91 5.02 38.11c-3.44 6.21-59.872-20.3-69.757-18.38-8.846 1.72-33.975 13.46-83.05 22.44 1.614.96 2.998 1.45 4.41 2.5 3.403 2.54 1.26.51 16.68 3.93 38.567 8.57 33.305 11.93 61.96 17.13 11.598 2.1 64.744-23.85 69.758-21.33 2.334 1.17 4.166 23.5-4.958 38.13-9.125 14.64 7.324 26.73-.063 45.06s8.46 31.91 5.02 38.11c-3.44 6.21-59.872-20.3-69.757-18.39-9.884 1.92-40.093 16.35-101.314 25.46-16.307 2.43-32.872 2.79-48.427 2.04v-.048z" fill-rule="evenodd"/></mask><mask id="j" fill="#fff"><path d="M186.369 296.833c4.222 9.274 3.21 18.05 3.21 18.05s-4.334 1.296-12.514 1.407c-3.032.706-15.145 2.914-34.797-1.227-22.89-4.823-33.47-29.096-33.47-29.096s.22-.22.66-.59c-1.3-.235-2.04-.314-2.18-.19-14.78 2.857-22.49 2.54-33.75 2.54s-55.81-16.81-70.16-34.83c0 0 22.28-5.41 22.28-9.982 0-4.57-25.46-13.018-25.46-13.018s-3.86-21.085 23.43-42.14c17.9-13.807 32.84-22.857 47.47-27.783-14.18-1.882-54.25-17.728-67.72-34.643 0 0 22.28-5.41 22.28-9.98S.208 102.34.208 102.34s-3.86-21.085 23.429-42.14c27.285-21.062 47.705-31.06 70.652-32.23s30.64-1.17 30.64-1.17S144.907 0 155.399 0c5.247 0 82.112 16.234 88.77 26.802 6.658 10.57 9.898 9.8 13.3 12.333 3.403 2.533 1.26.507 16.68 3.93 38.567 8.564 33.305 11.925 61.96 17.126 11.598 2.11 64.744-23.85 69.758-21.32 2.334 1.18 4.166 23.5-4.958 38.14-9.125 14.64 7.324 26.73-.063 45.06s8.46 31.91 5.02 38.11c-3.44 6.21-59.872-20.3-69.757-18.38-8.846 1.72-33.975 13.46-83.05 22.44 1.614.96 2.998 1.45 4.41 2.5 3.403 2.54 1.26.51 16.68 3.93 38.567 8.57 33.305 11.93 61.96 17.13 11.598 2.1 64.744-23.85 69.758-21.33 2.334 1.17 4.166 23.5-4.958 38.13-9.125 14.64 7.324 26.73-.063 45.06s8.46 31.91 5.02 38.11c-3.44 6.21-59.872-20.3-69.757-18.39-9.884 1.92-40.093 16.35-101.314 25.46-16.307 2.43-32.872 2.79-48.427 2.04v-.048z" fill-rule="evenodd"/></mask><mask id="l" fill="#fff"><path d="M186.369 296.833c4.222 9.274 3.21 18.05 3.21 18.05s-4.334 1.296-12.514 1.407c-3.032.706-15.145 2.914-34.797-1.227-22.89-4.823-33.47-29.096-33.47-29.096s.22-.22.66-.59c-1.3-.235-2.04-.314-2.18-.19-14.78 2.857-22.49 2.54-33.75 2.54s-55.81-16.81-70.16-34.83c0 0 22.28-5.41 22.28-9.982 0-4.57-25.46-13.018-25.46-13.018s-3.86-21.085 23.43-42.14c17.9-13.807 32.84-22.857 47.47-27.783-14.18-1.882-54.25-17.728-67.72-34.643 0 0 22.28-5.41 22.28-9.98S.208 102.34.208 102.34s-3.86-21.085 23.429-42.14c27.285-21.062 47.705-31.06 70.652-32.23s30.64-1.17 30.64-1.17S144.907 0 155.399 0c5.247 0 82.112 16.234 88.77 26.802 6.658 10.57 9.898 9.8 13.3 12.333 3.403 2.533 1.26.507 16.68 3.93 38.567 8.564 33.305 11.925 61.96 17.126 11.598 2.11 64.744-23.85 69.758-21.32 2.334 1.18 4.166 23.5-4.958 38.14-9.125 14.64 7.324 26.73-.063 45.06s8.46 31.91 5.02 38.11c-3.44 6.21-59.872-20.3-69.757-18.38-8.846 1.72-33.975 13.46-83.05 22.44 1.614.96 2.998 1.45 4.41 2.5 3.403 2.54 1.26.51 16.68 3.93 38.567 8.57 33.305 11.93 61.96 17.13 11.598 2.1 64.744-23.85 69.758-21.33 2.334 1.17 4.166 23.5-4.958 38.13-9.125 14.64 7.324 26.73-.063 45.06s8.46 31.91 5.02 38.11c-3.44 6.21-59.872-20.3-69.757-18.39-9.884 1.92-40.093 16.35-101.314 25.46-16.307 2.43-32.872 2.79-48.427 2.04v-.048z" fill-rule="evenodd"/></mask><mask id="m" fill="#fff"><path d="M186.369 296.833c4.222 9.274 3.21 18.05 3.21 18.05s-4.334 1.296-12.514 1.407c-3.032.706-15.145 2.914-34.797-1.227-22.89-4.823-33.47-29.096-33.47-29.096s.22-.22.66-.59c-1.3-.235-2.04-.314-2.18-.19-14.78 2.857-22.49 2.54-33.75 2.54s-55.81-16.81-70.16-34.83c0 0 22.28-5.41 22.28-9.982 0-4.57-25.46-13.018-25.46-13.018s-3.86-21.085 23.43-42.14c17.9-13.807 32.84-22.857 47.47-27.783-14.18-1.882-54.25-17.728-67.72-34.643 0 0 22.28-5.41 22.28-9.98S.208 102.34.208 102.34s-3.86-21.085 23.429-42.14c27.285-21.062 47.705-31.06 70.652-32.23s30.64-1.17 30.64-1.17S144.907 0 155.399 0c5.247 0 82.112 16.234 88.77 26.802 6.658 10.57 9.898 9.8 13.3 12.333 3.403 2.533 1.26.507 16.68 3.93 38.567 8.564 33.305 11.925 61.96 17.126 11.598 2.11 64.744-23.85 69.758-21.32 2.334 1.18 4.166 23.5-4.958 38.14-9.125 14.64 7.324 26.73-.063 45.06s8.46 31.91 5.02 38.11c-3.44 6.21-59.872-20.3-69.757-18.38-8.846 1.72-33.975 13.46-83.05 22.44 1.614.96 2.998 1.45 4.41 2.5 3.403 2.54 1.26.51 16.68 3.93 38.567 8.57 33.305 11.93 61.96 17.13 11.598 2.1 64.744-23.85 69.758-21.33 2.334 1.17 4.166 23.5-4.958 38.13-9.125 14.64 7.324 26.73-.063 45.06s8.46 31.91 5.02 38.11c-3.44 6.21-59.872-20.3-69.757-18.39-9.884 1.92-40.093 16.35-101.314 25.46-16.307 2.43-32.872 2.79-48.427 2.04v-.048z" fill-rule="evenodd"/></mask><mask id="n" fill="#fff"><path d="M186.369 296.833c4.222 9.274 3.21 18.05 3.21 18.05s-4.334 1.296-12.514 1.407c-3.032.706-15.145 2.914-34.797-1.227-22.89-4.823-33.47-29.096-33.47-29.096s.22-.22.66-.59c-1.3-.235-2.04-.314-2.18-.19-14.78 2.857-22.49 2.54-33.75 2.54s-55.81-16.81-70.16-34.83c0 0 22.28-5.41 22.28-9.982 0-4.57-25.46-13.018-25.46-13.018s-3.86-21.085 23.43-42.14c17.9-13.807 32.84-22.857 47.47-27.783-14.18-1.882-54.25-17.728-67.72-34.643 0 0 22.28-5.41 22.28-9.98S.208 102.34.208 102.34s-3.86-21.085 23.429-42.14c27.285-21.062 47.705-31.06 70.652-32.23s30.64-1.17 30.64-1.17S144.907 0 155.399 0c5.247 0 82.112 16.234 88.77 26.802 6.658 10.57 9.898 9.8 13.3 12.333 3.403 2.533 1.26.507 16.68 3.93 38.567 8.564 33.305 11.925 61.96 17.126 11.598 2.11 64.744-23.85 69.758-21.32 2.334 1.18 4.166 23.5-4.958 38.14-9.125 14.64 7.324 26.73-.063 45.06s8.46 31.91 5.02 38.11c-3.44 6.21-59.872-20.3-69.757-18.38-8.846 1.72-33.975 13.46-83.05 22.44 1.614.96 2.998 1.45 4.41 2.5 3.403 2.54 1.26.51 16.68 3.93 38.567 8.57 33.305 11.93 61.96 17.13 11.598 2.1 64.744-23.85 69.758-21.33 2.334 1.17 4.166 23.5-4.958 38.13-9.125 14.64 7.324 26.73-.063 45.06s8.46 31.91 5.02 38.11c-3.44 6.21-59.872-20.3-69.757-18.39-9.884 1.92-40.093 16.35-101.314 25.46-16.307 2.43-32.872 2.79-48.427 2.04v-.048z" fill-rule="evenodd"/></mask><mask id="o" fill="#fff"><path d="M186.369 296.833c4.222 9.274 3.21 18.05 3.21 18.05s-4.334 1.296-12.514 1.407c-3.032.706-15.145 2.914-34.797-1.227-22.89-4.823-33.47-29.096-33.47-29.096s.22-.22.66-.59c-1.3-.235-2.04-.314-2.18-.19-14.78 2.857-22.49 2.54-33.75 2.54s-55.81-16.81-70.16-34.83c0 0 22.28-5.41 22.28-9.982 0-4.57-25.46-13.018-25.46-13.018s-3.86-21.085 23.43-42.14c17.9-13.807 32.84-22.857 47.47-27.783-14.18-1.882-54.25-17.728-67.72-34.643 0 0 22.28-5.41 22.28-9.98S.208 102.34.208 102.34s-3.86-21.085 23.429-42.14c27.285-21.062 47.705-31.06 70.652-32.23s30.64-1.17 30.64-1.17S144.907 0 155.399 0c5.247 0 82.112 16.234 88.77 26.802 6.658 10.57 9.898 9.8 13.3 12.333 3.403 2.533 1.26.507 16.68 3.93 38.567 8.564 33.305 11.925 61.96 17.126 11.598 2.11 64.744-23.85 69.758-21.32 2.334 1.18 4.166 23.5-4.958 38.14-9.125 14.64 7.324 26.73-.063 45.06s8.46 31.91 5.02 38.11c-3.44 6.21-59.872-20.3-69.757-18.38-8.846 1.72-33.975 13.46-83.05 22.44 1.614.96 2.998 1.45 4.41 2.5 3.403 2.54 1.26.51 16.68 3.93 38.567 8.57 33.305 11.93 61.96 17.13 11.598 2.1 64.744-23.85 69.758-21.33 2.334 1.17 4.166 23.5-4.958 38.13-9.125 14.64 7.324 26.73-.063 45.06s8.46 31.91 5.02 38.11c-3.44 6.21-59.872-20.3-69.757-18.39-9.884 1.92-40.093 16.35-101.314 25.46-16.307 2.43-32.872 2.79-48.427 2.04v-.048z" fill-rule="evenodd"/></mask><mask id="p" fill="#fff"><path d="M186.369 296.833c4.222 9.274 3.21 18.05 3.21 18.05s-4.334 1.296-12.514 1.407c-3.032.706-15.145 2.914-34.797-1.227-22.89-4.823-33.47-29.096-33.47-29.096s.22-.22.66-.59c-1.3-.235-2.04-.314-2.18-.19-14.78 2.857-22.49 2.54-33.75 2.54s-55.81-16.81-70.16-34.83c0 0 22.28-5.41 22.28-9.982 0-4.57-25.46-13.018-25.46-13.018s-3.86-21.085 23.43-42.14c17.9-13.807 32.84-22.857 47.47-27.783-14.18-1.882-54.25-17.728-67.72-34.643 0 0 22.28-5.41 22.28-9.98S.208 102.34.208 102.34s-3.86-21.085 23.429-42.14c27.285-21.062 47.705-31.06 70.652-32.23s30.64-1.17 30.64-1.17S144.907 0 155.399 0c5.247 0 82.112 16.234 88.77 26.802 6.658 10.57 9.898 9.8 13.3 12.333 3.403 2.533 1.26.507 16.68 3.93 38.567 8.564 33.305 11.925 61.96 17.126 11.598 2.11 64.744-23.85 69.758-21.32 2.334 1.18 4.166 23.5-4.958 38.14-9.125 14.64 7.324 26.73-.063 45.06s8.46 31.91 5.02 38.11c-3.44 6.21-59.872-20.3-69.757-18.38-8.846 1.72-33.975 13.46-83.05 22.44 1.614.96 2.998 1.45 4.41 2.5 3.403 2.54 1.26.51 16.68 3.93 38.567 8.57 33.305 11.93 61.96 17.13 11.598 2.1 64.744-23.85 69.758-21.33 2.334 1.17 4.166 23.5-4.958 38.13-9.125 14.64 7.324 26.73-.063 45.06s8.46 31.91 5.02 38.11c-3.44 6.21-59.872-20.3-69.757-18.39-9.884 1.92-40.093 16.35-101.314 25.46-16.307 2.43-32.872 2.79-48.427 2.04v-.048z" fill-rule="evenodd"/></mask><g fill="none" transform="translate(.981)"><path d="M186.369 296.833c4.222 9.274 3.21 18.05 3.21 18.05s-4.334 1.296-12.514 1.407c-3.032.706-15.145 2.914-34.797-1.227-22.89-4.823-33.47-29.096-33.47-29.096s.22-.22.66-.59c-1.3-.235-2.04-.314-2.18-.19-14.78 2.857-22.49 2.54-33.75 2.54s-55.81-16.81-70.16-34.83c0 0 22.28-5.41 22.28-9.982 0-4.57-25.46-13.018-25.46-13.018s-3.86-21.085 23.43-42.14c17.9-13.807 32.84-22.857 47.47-27.783-14.18-1.882-54.25-17.728-67.72-34.643 0 0 22.28-5.41 22.28-9.98S.208 102.34.208 102.34s-3.86-21.085 23.429-42.14c27.285-21.062 47.705-31.06 70.652-32.23s30.64-1.17 30.64-1.17S144.907 0 155.399 0c5.247 0 82.112 16.234 88.77 26.802 6.658 10.57 9.898 9.8 13.3 12.333 3.403 2.533 1.26.507 16.68 3.93 38.567 8.564 33.305 11.925 61.96 17.126 11.598 2.11 64.744-23.85 69.758-21.32 2.334 1.18 4.166 23.5-4.958 38.14-9.125 14.64 7.324 26.73-.063 45.06s8.46 31.91 5.02 38.11c-3.44 6.21-59.872-20.3-69.757-18.38-8.846 1.72-33.975 13.46-83.05 22.44 1.614.96 2.998 1.45 4.41 2.5 3.403 2.54 1.26.51 16.68 3.93 38.567 8.57 33.305 11.93 61.96 17.13 11.598 2.1 64.744-23.85 69.758-21.33 2.334 1.17 4.166 23.5-4.958 38.13-9.125 14.64 7.324 26.73-.063 45.06s8.46 31.91 5.02 38.11c-3.44 6.21-59.872-20.3-69.757-18.39-9.884 1.92-40.093 16.35-101.314 25.46-16.307 2.43-32.872 2.79-48.427 2.04v-.048z" fill="url(#b)"/><path d="M249.019 102.683h161v61.337s-104.717.644-156.5 0c-19.13-.237-82.51-4.34-82.51-4.34H60.519l-60.5 4.34v-49.014h249z" fill="url(#c)" mask="url(#d)"/><path d="M161.019 148.675h145v17.552l-145-5.85" fill="#6f47ff" mask="url(#e)"/><path d="M194.019 231.544h216v90.35h-410V243.52h194v-11.975z" fill="#f78ec6" mask="url(#f)"/><path d="M194.019 231.544h216v90.35h-410V243.52h194v-11.975z" fill="url(#g)" mask="url(#f)"/><path d="M158.169 59.41c6.97.357 13.94.725 20.445 1.085 2.27.126 4.448.248 6.52.368 5.88.338 10.812.642 14.6.903 14.246.984 36.207 4.264 52.985 7.592 25.715 5.102 46.707 12.65 80.04 27.334 2.54 1.12 11.27 4.985 11.473 5.074 2.233.988 4.763-.227 5.65-2.712s-.204-5.3-2.438-6.287c-.196-.087-8.932-3.956-11.483-5.08-33.83-14.902-55.297-22.62-81.715-27.862-17.077-3.388-39.346-6.714-53.974-7.724-3.822-.26-8.782-.57-14.688-.9-2.08-.12-4.262-.24-6.537-.37-6.517-.36-13.497-.73-20.477-1.08-2.44-.12-4.71-.24-6.74-.34-.71-.03-1.34-.07-1.89-.09l-.67-.03c-3.35-.16-5.6 3.77-4.05 7.08l.36.8c.31.69.65 1.48 1.02 2.37 1.06 2.55 2.13 5.34 3.12 8.25 1.57 4.62 2.8 9.11 3.57 13.26a53 53 0 0 1 .65 4.47c.42 4.12-.51 11.23-2.54 20.21-.72 3.18-1.56 6.52-2.49 9.98-1.14 4.23-2.37 8.41-3.6 12.35-.43 1.38-.83 2.62-1.18 3.72-.12.38-.23.72-.33 1l-.11.33c-.84 2.5.29 5.3 2.54 6.24s4.76-.32 5.61-2.83l.13-.38c.1-.3.22-.65.35-1.05a334.646 334.646 0 0 0 4.94-16.57c.97-3.585 1.85-7.07 2.6-10.4 2.27-10.05 3.33-18.055 2.76-23.66a65.337 65.337 0 0 0-.77-5.325c-.87-4.72-2.23-9.68-3.95-14.744a139.018 139.018 0 0 0-1.815-5.03l2.14.11z" fill="#974dff" mask="url(#h)"/><path d="M158.226 114.604c.572-2.235 1.1-4.42 1.58-6.54 2.272-10.053 3.325-18.057 2.755-23.662a66.307 66.307 0 0 0-.77-5.323c-.867-4.72-2.228-9.69-3.95-14.75-.586-1.73-1.196-3.41-1.816-5.04l2.145.11c6.97.35 13.94.72 20.45 1.08 2.27.12 4.45.25 6.52.37 5.88.33 10.81.64 14.6.9 14.25.98 36.21 4.26 52.99 7.59 25.72 5.1 46.71 12.65 80.04 27.33 2.54 1.12 11.27 4.98 11.48 5.07 2.24.99 4.77-.23 5.65-2.71.89-2.49-.2-5.3-2.44-6.29-.19-.09-8.93-3.96-11.48-5.08-33.83-14.9-55.29-22.62-81.71-27.86-17.07-3.39-39.34-6.72-53.97-7.73-3.82-.26-8.78-.57-14.68-.91-2.08-.12-4.26-.25-6.54-.37-6.51-.36-13.49-.73-20.47-1.09-2.44-.13-4.71-.24-6.74-.34l-1.89-.1-.67-.038c-3.34-.167-5.6 3.764-4.05 7.07.06.13.19.4.36.803.31.682.65 1.48 1.02 2.37 1.06 2.55 2.13 5.33 3.12 8.24 1.57 4.616 2.8 9.1 3.56 13.26a53 53 0 0 1 .65 4.47c.42 4.12-.512 11.226-2.55 20.21-.64 2.85-1.38 5.83-2.2 8.905h9.07z" fill="#f1a5ff" mask="url(#i)"/><path d="M122.683 61.003c.068.11.21.352.418.712.355.615.753 1.327 1.183 2.126 1.234 2.3 2.47 4.8 3.62 7.44 1.99 4.56 3.504 8.99 4.356 13.07.51 2.4.76 4.62.76 6.62 0 5.67-1.28 11.88-3.44 18.12-.76 2.21-1.58 4.27-2.4 6.1a53.43 53.43 0 0 1-1.03 2.21c-1.08 2.09-.4 4.74 1.52 5.92 1.93 1.18 4.37.44 5.45-1.65.27-.52.72-1.44 1.28-2.69.92-2.06 1.83-4.35 2.69-6.82 2.449-7.161 3.929-14.341 3.929-21.191 0-2.698-.332-5.548-.957-8.54-.997-4.78-2.707-9.79-4.928-14.87-1.256-2.88-2.6-5.61-3.943-8.1a76.406 76.406 0 0 0-1.836-3.25c-1.22-2-3.7-2.55-5.543-1.23s-2.348 4.02-1.13 6.02v.003z" fill="#974dff" mask="url(#j)"/><path d="M136.169 114.604c.305-.8.604-1.625.896-2.47 2.466-7.134 3.954-14.314 3.954-21.17 0-2.693-.332-5.543-.957-8.534-.997-4.776-2.707-9.783-4.928-14.87a110.4 110.4 0 0 0-3.943-8.1 74.733 74.733 0 0 0-1.836-3.248c-1.22-2-3.7-2.548-5.543-1.225s-2.348 4.017-1.13 6.016c.07.11.212.352.42.712.354.615.752 1.327 1.182 2.126 1.234 2.3 2.47 4.8 3.62 7.44 1.99 4.56 3.504 8.99 4.356 13.07.51 2.4.76 4.62.76 6.62 0 5.67-1.28 11.88-3.44 18.12-.68 1.98-1.41 3.84-2.14 5.52h8.74z" fill="url(#k)" mask="url(#l)"/><path d="M136.169 114.604c.305-.8.604-1.625.896-2.47 2.466-7.134 3.954-14.314 3.954-21.17 0-2.693-.332-5.543-.957-8.534-.997-4.776-2.707-9.783-4.928-14.87a110.4 110.4 0 0 0-3.943-8.1 74.733 74.733 0 0 0-1.836-3.248c-1.22-2-3.7-2.548-5.543-1.225s-2.348 4.017-1.13 6.016c.07.11.212.352.42.712.354.615.752 1.327 1.182 2.126 1.234 2.3 2.47 4.8 3.62 7.44 1.99 4.56 3.504 8.99 4.356 13.07.51 2.4.76 4.62.76 6.62 0 5.67-1.28 11.88-3.44 18.12-.68 1.98-1.41 3.84-2.14 5.52h8.74z" fill="#f1a5ff" mask="url(#l)"/><path d="M158.169 188.47c6.97.356 13.94.724 20.445 1.084 2.27.125 4.448.248 6.52.367 5.88.34 10.812.65 14.6.91 14.246.99 36.207 4.27 52.985 7.59 25.715 5.1 46.707 12.65 80.04 27.34 2.54 1.12 11.27 4.99 11.473 5.08 2.233.99 4.763-.22 5.65-2.71.887-2.48-.204-5.3-2.438-6.28-.196-.09-8.932-3.95-11.483-5.08-33.83-14.9-55.297-22.62-81.715-27.86-17.077-3.39-39.346-6.71-53.974-7.72-3.822-.26-8.782-.57-14.688-.91-2.08-.12-4.262-.24-6.537-.36-6.517-.36-13.497-.73-20.477-1.09-2.44-.12-4.71-.24-6.74-.34l-1.89-.09-.67-.03c-3.35-.16-5.6 3.77-4.05 7.08l.36.8c.31.69.65 1.484 1.02 2.37 1.06 2.55 2.13 5.33 3.12 8.248 1.57 4.615 2.8 9.1 3.57 13.26.29 1.557.51 3.05.65 4.47.42 4.117-.51 11.225-2.54 20.21-.72 3.176-1.56 6.52-2.49 9.97-1.14 4.23-2.37 8.41-3.6 12.348-.43 1.38-.83 2.627-1.18 3.72-.12.38-.23.715-.33 1l-.11.33c-.84 2.505.29 5.297 2.54 6.238 2.25.94 4.76-.32 5.61-2.83l.13-.38c.1-.3.22-.65.35-1.05.37-1.14.79-2.43 1.23-3.85 1.27-4.05 2.53-8.36 3.71-12.73.97-3.59 1.85-7.07 2.6-10.4 2.27-10.05 3.33-18.053 2.76-23.66a65.287 65.287 0 0 0-.77-5.32c-.87-4.717-2.23-9.68-3.95-14.744a137.577 137.577 0 0 0-1.815-5.04l2.14.11z" fill="#373fff" mask="url(#m)"/><path d="M158.226 243.662c.572-2.234 1.1-4.42 1.58-6.54 2.272-10.053 3.325-18.057 2.755-23.66a66.2 66.2 0 0 0-.77-5.324c-.867-4.717-2.228-9.68-3.95-14.744a139.086 139.086 0 0 0-1.816-5.034l2.145.11c6.97.356 13.94.724 20.45 1.084 2.27.125 4.45.248 6.52.367 5.88.34 10.81.65 14.6.91 14.25.99 36.21 4.27 52.99 7.59 25.72 5.1 46.71 12.65 80.04 27.34 2.54 1.12 11.27 4.99 11.48 5.08 2.24.99 4.77-.22 5.65-2.71.89-2.48-.2-5.3-2.44-6.28-.19-.09-8.93-3.95-11.48-5.08-33.83-14.9-55.29-22.62-81.71-27.86-17.07-3.39-39.34-6.71-53.97-7.72a1459.735 1459.735 0 0 0-21.22-1.27c-6.51-.36-13.49-.73-20.47-1.09-2.44-.12-4.71-.24-6.74-.34l-1.89-.09-.67-.03c-3.34-.16-5.6 3.77-4.05 7.08.06.13.19.4.36.8.31.69.65 1.484 1.02 2.37 1.06 2.55 2.13 5.33 3.12 8.248 1.57 4.615 2.8 9.1 3.56 13.26.29 1.557.51 3.05.65 4.47.42 4.117-.512 11.225-2.55 20.21-.64 2.847-1.38 5.828-2.2 8.9h9.07z" fill="#f1a5ff" mask="url(#n)"/><path d="M122.683 190.062c.068.11.21.352.418.71.355.616.753 1.33 1.183 2.127 1.234 2.29 2.47 4.8 3.62 7.43 1.99 4.55 3.504 8.99 4.356 13.07.51 2.39.76 4.61.76 6.61 0 5.67-1.28 11.88-3.44 18.12a74.808 74.808 0 0 1-3.17 7.77c-.13.27-.22.45-.26.53-1.08 2.09-.4 4.73 1.52 5.91 1.93 1.18 4.37.44 5.45-1.65.27-.52.72-1.44 1.28-2.7.92-2.06 1.83-4.36 2.69-6.83 2.47-7.14 3.96-14.32 3.96-21.17 0-2.7-.33-5.55-.96-8.54-.99-4.77-2.7-9.78-4.93-14.87-1.25-2.88-2.6-5.6-3.94-8.1a78.11 78.11 0 0 0-1.83-3.25c-1.22-2-3.7-2.55-5.54-1.23s-2.35 4.02-1.13 6.02z" fill="#373fff" mask="url(#o)"/><path d="M136.169 243.662c.305-.8.604-1.624.896-2.47 2.466-7.134 3.954-14.314 3.954-21.17 0-2.693-.332-5.543-.957-8.535-.997-4.774-2.707-9.782-4.928-14.87a110.997 110.997 0 0 0-3.943-8.1 75.16 75.16 0 0 0-1.836-3.247c-1.22-2-3.7-2.548-5.543-1.225s-2.348 4.017-1.13 6.017c.07.11.212.352.42.71.354.616.752 1.33 1.182 2.127 1.234 2.29 2.47 4.8 3.62 7.43 1.99 4.55 3.504 8.99 4.356 13.07.51 2.39.76 4.61.76 6.61 0 5.67-1.28 11.88-3.44 18.12-.68 1.98-1.41 3.83-2.14 5.52h8.74z" fill="url(#k)" mask="url(#p)"/><path d="M136.169 243.662c.305-.8.604-1.624.896-2.47 2.466-7.134 3.954-14.314 3.954-21.17 0-2.693-.332-5.543-.957-8.535-.997-4.774-2.707-9.782-4.928-14.87a110.997 110.997 0 0 0-3.943-8.1 75.16 75.16 0 0 0-1.836-3.247c-1.22-2-3.7-2.548-5.543-1.225s-2.348 4.017-1.13 6.017c.07.11.212.352.42.71.354.616.752 1.33 1.182 2.127 1.234 2.29 2.47 4.8 3.62 7.43 1.99 4.55 3.504 8.99 4.356 13.07.51 2.39.76 4.61.76 6.61 0 5.67-1.28 11.88-3.44 18.12-.68 1.98-1.41 3.83-2.14 5.52h8.74z" fill="#f1a5ff" mask="url(#p)"/><ellipse cx="69.178" cy="210.115" fill="#000" mask="url(#p)" rx="19.057" ry="19.625" transform="matrix(-1 0 0 1 138.355 0)"/><path d="M88.234 210.332v-.217c0-10.84-8.53-19.625-19.055-19.625-10.526 0-19.058 8.786-19.058 19.625 0 10.838 8.532 19.625 19.057 19.625 9.43 0 17.258-7.052 18.787-16.314-1.315 6.966-7.27 12.225-14.42 12.225-8.113 0-14.69-6.77-14.69-15.12s6.576-15.121 14.69-15.121c8.05 0 14.59 6.67 14.69 14.936z" fill="#fff" mask="url(#p)" transform="matrix(-1 0 0 1 138.355 0)"/><ellipse cx="59.557" cy="215.795" fill="#fff" mask="url(#p)" rx="4.856" ry="4.862" transform="matrix(-1 0 0 1 119.114 0)"/><ellipse cx="69.178" cy="80.812" fill="#000" mask="url(#p)" rx="19.057" ry="19.625" transform="matrix(-1 0 0 1 138.355 0)"/><g fill="#fff"><path d="M88.234 81.029v-.217c0-10.84-8.53-19.625-19.055-19.625-10.526 0-19.058 8.786-19.058 19.625 0 10.838 8.532 19.625 19.057 19.625 9.43 0 17.258-7.052 18.787-16.314-1.315 6.966-7.27 12.225-14.42 12.225-8.113 0-14.69-6.77-14.69-15.12s6.576-15.121 14.69-15.121c8.05 0 14.59 6.67 14.69 14.936z" mask="url(#p)" transform="matrix(-1 0 0 1 138.355 0)"/><ellipse cx="59.557" cy="86.492" mask="url(#p)" rx="4.856" ry="4.862" transform="matrix(-1 0 0 1 119.114 0)"/></g></g></svg>